<?xml version="1.0" encoding="utf-8"?>
<!-- Generator: Adobe Illustrator 24.1.1, SVG Export Plug-In . SVG Version: 6.00 Build 0)  -->
<svg version="1.1" id="Layer_1" xmlns="http://www.w3.org/2000/svg" xmlns:xlink="http://www.w3.org/1999/xlink" x="0px" y="0px"
	 viewBox="0 0 200 200" style="enable-background:new 0 0 200 200;" xml:space="preserve">
<style type="text/css">
	.st0{fill:url(#SVGID_1_);}
	.st1{fill:none;}
	.st2{fill:url(#SVGID_2_);}
	.st3{fill:url(#SVGID_3_);}
	.st4{fill:url(#SVGID_4_);}
	.st5{fill:url(#SVGID_5_);}
	.st6{fill:url(#SVGID_6_);}
	.st7{fill:url(#SVGID_7_);}
	.st8{fill:url(#SVGID_8_);}
</style>
<g>
	<g>
		<linearGradient id="SVGID_1_" gradientUnits="userSpaceOnUse" x1="90.4407" y1="73.5035" x2="134.6246" y2="73.5035">
			<stop  offset="0" style="stop-color:#00D70D"/>
			<stop  offset="1" style="stop-color:#C8E900"/>
		</linearGradient>
		<path class="st0" d="M131.44,85.89c-1.61,0-2.99-1.21-3.16-2.84c-0.07-0.63-1.95-15.56-16.24-15.56c-5.88,0-10.2,2.47-12.83,7.33
			c-2.13,3.93-2.4,8.02-2.4,8.06c-0.11,1.75-1.63,3.08-3.36,2.99c-1.75-0.1-3.09-1.59-3-3.35c0.4-7.41,5.43-21.41,21.59-21.41
			c16.04,0,21.78,13.89,22.57,21.24c0.19,1.75-1.07,3.32-2.82,3.51C131.67,85.88,131.55,85.89,131.44,85.89z"/>
	</g>
	<path class="st1" d="M74.04,103.41c0,0,0,0.02,0.01,0.04L74.04,103.41z"/>
	<linearGradient id="SVGID_2_" gradientUnits="userSpaceOnUse" x1="72.817" y1="113.692" x2="152.2484" y2="113.692">
		<stop  offset="0" style="stop-color:#4BD400"/>
		<stop  offset="0.6108" style="stop-color:#BCEB0D"/>
		<stop  offset="1" style="stop-color:#FFF915"/>
	</linearGradient>
	<path class="st2" d="M147.14,88.84h-34.6h-34.6c-3.09,0-5.48,2.73-5.07,5.79l1.18,8.77l0,0c0,0,0,0.01,0,0.01l0.01,0.04
		c0.13,0.89,2.49,14.36,29.01,11.9c0,0-8.14,5.09-9.43,12.17c-1.29,7.08,3.62,11.02,8.7,11.02h10.2h29.3c2.56,0,4.73-1.89,5.07-4.43
		l5.3-39.48C152.61,91.57,150.23,88.84,147.14,88.84z"/>
	<linearGradient id="SVGID_3_" gradientUnits="userSpaceOnUse" x1="67.8921" y1="102.6736" x2="81.8586" y2="104.3393">
		<stop  offset="0" style="stop-color:#4C0071"/>
		<stop  offset="0.4221" style="stop-color:#80009A"/>
		<stop  offset="0.9889" style="stop-color:#C300CE"/>
	</linearGradient>
	<polygon class="st3" points="74.04,103.4 74.04,103.4 74.04,103.41 	"/>
	<linearGradient id="SVGID_4_" gradientUnits="userSpaceOnUse" x1="60.7771" y1="101.825" x2="74.7435" y2="103.4907">
		<stop  offset="0" style="stop-color:#4C0071"/>
		<stop  offset="0.4221" style="stop-color:#80009A"/>
		<stop  offset="0.9889" style="stop-color:#C300CE"/>
	</linearGradient>
	<polygon class="st4" points="74.04,103.4 74.04,103.4 74.04,103.41 	"/>
	<linearGradient id="SVGID_5_" gradientUnits="userSpaceOnUse" x1="101.3415" y1="111.9962" x2="121.1688" y2="111.9962">
		<stop  offset="1" style="stop-color:#F5FFBF"/>
		<stop  offset="1" style="stop-color:#81FF86"/>
		<stop  offset="1" style="stop-color:#3EFF65"/>
	</linearGradient>
	<path class="st5" d="M109.83,119.1l10.96-12.2c0.86-0.96,0.19-2.48-1.1-2.5l-16.4-0.16c-1.79-0.02-2.63,2.21-1.27,3.38l2.6,2.24
		c1.3,1.12,2.02,2.76,1.97,4.47l-0.1,3.43C106.42,119.55,108.63,120.44,109.83,119.1z"/>
	<linearGradient id="SVGID_6_" gradientUnits="userSpaceOnUse" x1="53.9206" y1="111.7901" x2="72.817" y2="111.7901">
		<stop  offset="3.526682e-03" style="stop-color:#00E908"/>
		<stop  offset="0.6284" style="stop-color:#9BF811"/>
		<stop  offset="0.9656" style="stop-color:#EAFF15"/>
		<stop  offset="0.983" style="stop-color:#DEFF5E"/>
		<stop  offset="1" style="stop-color:#D2FFA1"/>
	</linearGradient>
	<path class="st6" d="M69.71,114.9H57.03c-1.71,0-3.11-1.4-3.11-3.11l0,0c0-1.71,1.4-3.11,3.11-3.11h12.68
		c1.71,0,3.11,1.4,3.11,3.11l0,0C72.82,113.5,71.42,114.9,69.71,114.9z"/>
	<linearGradient id="SVGID_7_" gradientUnits="userSpaceOnUse" x1="68.3583" y1="133.1127" x2="87.2548" y2="133.1127">
		<stop  offset="3.526682e-03" style="stop-color:#0AE900"/>
		<stop  offset="0.6016" style="stop-color:#76CF00"/>
		<stop  offset="1" style="stop-color:#B9BF00"/>
	</linearGradient>
	<path class="st7" d="M84.15,136.22H71.47c-1.71,0-3.11-1.4-3.11-3.11l0,0c0-1.71,1.4-3.11,3.11-3.11h12.68
		c1.71,0,3.11,1.4,3.11,3.11l0,0C87.25,134.82,85.86,136.22,84.15,136.22z"/>
	<linearGradient id="SVGID_8_" gradientUnits="userSpaceOnUse" x1="48.3591" y1="122.4061" x2="83.6042" y2="122.4061">
		<stop  offset="3.526682e-03" style="stop-color:#00D413"/>
		<stop  offset="0.659" style="stop-color:#8BE206"/>
		<stop  offset="1" style="stop-color:#CEE900"/>
	</linearGradient>
	<path class="st8" d="M80.1,125.91H51.86c-1.93,0-3.5-1.58-3.5-3.5l0,0c0-1.93,1.58-3.5,3.5-3.5H80.1c1.93,0,3.5,1.58,3.5,3.5l0,0
		C83.6,124.33,82.03,125.91,80.1,125.91z"/>
</g>
</svg>
